<?xml version="1.0" encoding="utf-8"?>
<!-- Generator: Adobe Illustrator 23.1.0, SVG Export Plug-In . SVG Version: 6.00 Build 0)  -->
<svg version="1.1" id="Capa_1" xmlns="http://www.w3.org/2000/svg" xmlns:xlink="http://www.w3.org/1999/xlink" x="0px" y="0px"
	 viewBox="0 0 31.5 23.5" style="enable-background:new 0 0 31.5 23.5;" xml:space="preserve">
<style type="text/css">
	.st0{fill:#F3510D;}
	.st1{fill:#EF6B11;}
</style>
<g>
	<g>
		<path class="st0" d="M4.2,10.2L4.4,11c4.7-1.2,8.9,1.1,9,1.1l0.4-0.6C13.6,11.3,9.2,8.9,4.2,10.2z"/>
		<path class="st0" d="M4.2,12.2l0.2,0.7c4.7-1.2,8.9,1.1,9,1.1l0.4-0.6C13.6,13.3,9.2,10.9,4.2,12.2z"/>
		<path class="st0" d="M4.2,6.2l0.2,0.7c4.7-1.2,8.9,1.1,9,1.1l0.4-0.6C13.6,7.2,9.2,4.8,4.2,6.2z"/>
		<path class="st0" d="M4.2,8.1l0.2,0.7c4.7-1.2,8.9,1.1,9,1.1l0.4-0.6C13.6,9.2,9.2,6.8,4.2,8.1z"/>
		<path class="st0" d="M4.2,14.2L4.4,15c4.7-1.2,8.9,1.1,9,1.1l0.4-0.6C13.6,15.3,9.2,12.9,4.2,14.2z"/>
		<path class="st0" d="M7.4,0C4.2,0,1.9,0.9,1.8,0.9L1.5,1.1v1.8C0.6,3.1,0,3.4,0,3.9c0,2.7,0,18.9,0,18.9h13.9
			c0.5,0.4,1.1,0.7,1.8,0.7V2.9C13.5,1,10.6,0,7.4,0z M6.6,19.3c-1.6,0-3,0.2-4.2,0.7V1.7C3.1,1.4,5,0.9,7.3,0.9
			c3.1,0,5.7,0.9,7.8,2.7v11l0.5-0.6c0.1,0,0.1,7.3,0.1,7.3C14.5,20.8,10.6,19.3,6.6,19.3z"/>
		<path class="st0" d="M4.2,16.3L4.4,17c4.7-1.2,8.9,1.1,9,1.1l0.4-0.6C13.6,17.3,9.2,15,4.2,16.3z"/>
		<path class="st0" d="M4.2,4.1l0.2,0.7c4.7-1.2,8.9,1.1,9,1.1l0.4-0.6C13.6,5.1,9.2,2.8,4.2,4.1z"/>
	</g>
	<g>
		<path class="st1" d="M15.8,23.5h0.2C15.8,23.5,15.8,23.5,15.8,23.5L15.8,23.5z"/>
		<path class="st1" d="M27.6,17c-4.7-1.2-9,1.1-9,1.1l-0.4-0.6c0.2-0.1,4.6-2.5,9.6-1.2L27.6,17z M27.6,15c-4.7-1.2-9,1.1-9,1.1
			l-0.4-0.6c0.2-0.1,4.6-2.5,9.6-1.2L27.6,15z M27.6,12.9c-4.7-1.2-9,1.1-9,1.1l-0.4-0.6c0.2-0.1,4.6-2.4,9.6-1.2L27.6,12.9z
			 M27.6,11c-4.7-1.2-9,1.1-9,1.1l-0.4-0.6c0.2-0.2,4.6-2.5,9.6-1.2L27.6,11z M27.6,8.8c-4.7-1.2-9,1.1-9,1.1l-0.4-0.6
			c0.2-0.1,4.6-2.5,9.6-1.2L27.6,8.8z M27.6,6.9c-4.7-1.2-9,1.1-9,1.1l-0.4-0.6c0.2-0.1,4.6-2.5,9.6-1.2L27.6,6.9z M27.6,4.8
			c-4.7-1.2-9,1.1-9,1.1l-0.3-0.6c0.2-0.1,4.5-2.5,9.5-1.2L27.6,4.8z"/>
		<path class="st1" d="M18.2,9.3l0.4,0.6c0,0,4.3-2.3,9-1.1l0.2-0.7C22.8,6.8,18.4,9.2,18.2,9.3z"/>
		<path class="st1" d="M18.3,5.3l0.3,0.6c0,0,4.3-2.3,9-1.1l0.2-0.7C22.8,2.8,18.5,5.2,18.3,5.3z"/>
		<path class="st1" d="M18.2,7.4L18.6,8c0,0,4.3-2.3,9-1.1l0.2-0.7C22.8,4.9,18.4,7.3,18.2,7.4z"/>
		<path class="st1" d="M30.2,3V1l-0.3-0.1c-0.1,0-2.4-0.9-5.5-0.9c-3.3,0-6.2,1-8.5,3c0,0-0.1-0.1-0.2-0.1v20.6c0.1,0,0.1,0,0.2,0
			c0.8,0,1.5-0.3,2-0.7h13.6c0,0,0-18,0-18.9C31.5,3.5,31,3.2,30.2,3z M24.9,19.3c-4,0-7.8,1.5-8.9,2V14l0.5,0.6v-11
			c2.1-1.8,4.8-2.7,7.8-2.7c2.3,0,4.2,0.5,4.9,0.8c0.1,0,0.1,18.4,0.1,18.4C28,19.6,26.6,19.3,24.9,19.3z"/>
		<path class="st1" d="M18.2,15.5l0.4,0.6c0,0,4.3-2.3,9-1.1l0.2-0.7C22.8,13,18.4,15.4,18.2,15.5z"/>
		<path class="st1" d="M18.2,11.5l0.4,0.6c0,0,4.3-2.3,9-1.1l0.2-0.7C22.8,9,18.4,11.3,18.2,11.5z"/>
		<path class="st1" d="M18.2,17.5l0.4,0.6c0,0,4.3-2.3,9-1.1l0.2-0.7C22.8,15,18.4,17.4,18.2,17.5z"/>
		<path class="st1" d="M18.2,13.4l0.4,0.6c0,0,4.3-2.3,9-1.1l0.2-0.7C22.8,11,18.4,13.3,18.2,13.4z"/>
	</g>
</g>
</svg>
