<?xml version="1.0" encoding="utf-8"?>
<!-- Generator: Adobe Illustrator 23.1.0, SVG Export Plug-In . SVG Version: 6.00 Build 0)  -->
<svg version="1.1" id="Capa_1" xmlns="http://www.w3.org/2000/svg" xmlns:xlink="http://www.w3.org/1999/xlink" x="0px" y="0px"
	 viewBox="0 0 512 512" style="enable-background:new 0 0 512 512;" xml:space="preserve">
<style type="text/css">
	.st0{fill:#656565;}
</style>
<path class="st0" d="M375.7,330.5c24.6-33.6,39.6-74.7,40.2-119.4c1.7-113.3-88.4-207.6-201.6-211C94.7-3.5-3.5,94.6,0.1,214.3
	c3.4,113.2,97.7,203.3,211,201.7c44.6-0.7,85.8-15.6,119.4-40.2l117.7,117.7c10.2,10.2,26.8,10.2,37,0l8.2-8.2
	c10.2-10.2,10.2-26.8,0-37C456.2,411,375.7,330.5,375.7,330.5L375.7,330.5z M208,352c-79.4,0-144-64.6-144-144S128.6,64,208,64
	s144,64.6,144,144S287.4,352,208,352L208,352z"/>
</svg>
