<?xml version="1.0" encoding="utf-8"?>
<!-- Generator: Adobe Illustrator 23.1.0, SVG Export Plug-In . SVG Version: 6.00 Build 0)  -->
<svg version="1.1" id="Capa_1" xmlns="http://www.w3.org/2000/svg" xmlns:xlink="http://www.w3.org/1999/xlink" x="0px" y="0px"
	 viewBox="0 0 160.7 160.7" style="enable-background:new 0 0 160.7 160.7;" xml:space="preserve">
<style type="text/css">
	.st0{fill:#F3510D;}
	.st1{fill:#EF6B11;}
</style>
<g>
	<path class="st0" d="M34.6,41.3c0,16.2,9.3,34.1,22.8,43.2c-32.3,8.2-56.3,36.3-56.3,57.1c0,12.3,37.4,18.4,74.7,18.4L54.9,139
		l17.6-42.6h-0.2l-6.8-7.9c3.3,1.2,6.8,1.9,10.3,1.9l0-90.5C53,0,34.6,18.5,34.6,41.3z"/>
	<path class="st1" d="M86.1,88.6l-6.8,7.8h-0.2L96.8,139l-20.9,20.9v0c16.1,0,32.3-1.1,45.4-3.4l-5.5-22.3l8-35.5
		c-8.5-6.3-18.5-11.5-29.5-14.3c13.5-9.1,22.8-27,22.8-43.2C117.1,18.5,98.6,0,75.8,0v90.5C79.4,90.5,82.8,89.8,86.1,88.6z"/>
	<path class="st0" d="M150,66.1c-6.6-1.5-13.2,2.7-14.6,9.3l-1.6,7.1l-1,4.3l-10.7,47.4l4,16l2.5,10.3l0.1,0.3l0.2-0.3l6.7-8.2
		l10.4-12.8l10.7-47.4l1-4.3l1.6-7.1C160.8,74.1,156.6,67.6,150,66.1z M133.4,151.8l-5.2-1.2l-3.8-15.3l1.1-0.4l16.8,3.8l1,1
		L133.4,151.8z M155.8,87.3l-20-4.5l1.2-5.1l20,4.5L155.8,87.3z"/>
</g>
</svg>
