<?xml version="1.0" encoding="utf-8"?>
<!-- Generator: Adobe Illustrator 23.1.0, SVG Export Plug-In . SVG Version: 6.00 Build 0)  -->
<svg version="1.1" id="Capa_1" xmlns="http://www.w3.org/2000/svg" xmlns:xlink="http://www.w3.org/1999/xlink" x="0px" y="0px"
	 viewBox="0 0 31.5 23.5" style="enable-background:new 0 0 31.5 23.5;" xml:space="preserve">
<style type="text/css">
	.st0{fill:#FF7C00;}
</style>
<g>
	<g>
		<path class="st0" d="M30.2,3v-2l-0.3-0.1c-0.1,0-2.4-0.9-5.5-0.9c-3.3,0-6.2,1-8.5,3c-2.3-2-5.2-3-8.5-3C4.2,0,1.9,0.9,1.8,0.9
			L1.5,1.1v1.8C0.6,3.1,0,3.4,0,3.9c0,2.7,0,18.9,0,18.9h13.9c0.5,0.4,1.2,0.7,2,0.7c0.8,0,1.5-0.3,2-0.7h13.6c0,0,0-18,0-18.9
			C31.5,3.5,31,3.2,30.2,3z M15.7,21.3c-1.2-0.5-5.1-2-9.1-2c-1.6,0-3,0.2-4.2,0.7V1.7C3.1,1.4,5,0.9,7.3,0.9c3.1,0,5.7,0.9,7.8,2.7
			v11l0.5-0.6C15.7,14,15.7,21.3,15.7,21.3z M29.3,20.1c-1.3-0.5-2.7-0.8-4.4-0.8c-4,0-7.8,1.5-8.9,2V14l0.5,0.6v-11
			c2.1-1.8,4.8-2.7,7.8-2.7c2.3,0,4.2,0.5,4.9,0.8C29.3,1.7,29.3,20.1,29.3,20.1z"/>
		<path class="st0" d="M4.2,4.1l0.2,0.7c4.7-1.2,8.9,1.1,9,1.1l0.4-0.6C13.6,5.1,9.2,2.8,4.2,4.1z"/>
		<path class="st0" d="M4.2,6.2l0.2,0.7c4.7-1.2,8.9,1.1,9,1.1l0.4-0.6C13.6,7.2,9.2,4.8,4.2,6.2z"/>
		<path class="st0" d="M4.2,8.1l0.2,0.7c4.7-1.2,8.9,1.1,9,1.1l0.4-0.6C13.6,9.2,9.2,6.8,4.2,8.1z"/>
		<path class="st0" d="M4.2,10.2L4.4,11c4.7-1.2,8.9,1.1,9,1.1l0.4-0.6C13.6,11.3,9.2,8.9,4.2,10.2z"/>
		<path class="st0" d="M4.2,12.2l0.2,0.7c4.7-1.2,8.9,1.1,9,1.1l0.4-0.6C13.6,13.3,9.2,10.9,4.2,12.2z"/>
		<path class="st0" d="M4.2,14.2L4.4,15c4.7-1.2,8.9,1.1,9,1.1l0.4-0.6C13.6,15.3,9.2,12.9,4.2,14.2z"/>
		<path class="st0" d="M4.2,16.3L4.4,17c4.7-1.2,8.9,1.1,9,1.1l0.4-0.6C13.6,17.3,9.2,15,4.2,16.3z"/>
		<path class="st0" d="M18.6,5.9c0,0,4.3-2.3,9-1.1l0.2-0.7c-5-1.3-9.3,1.1-9.5,1.2L18.6,5.9z"/>
		<path class="st0" d="M18.2,7.4L18.6,8c0,0,4.3-2.3,9-1.1l0.2-0.7C22.8,4.9,18.4,7.3,18.2,7.4z"/>
		<path class="st0" d="M18.2,9.3l0.4,0.6c0,0,4.3-2.3,9-1.1l0.2-0.7C22.8,6.8,18.4,9.2,18.2,9.3z"/>
		<path class="st0" d="M18.2,11.5l0.4,0.6c0,0,4.3-2.3,9-1.1l0.2-0.7C22.8,9,18.4,11.3,18.2,11.5z"/>
		<path class="st0" d="M18.2,13.4l0.4,0.6c0,0,4.3-2.3,9-1.1l0.2-0.7C22.8,11,18.4,13.3,18.2,13.4z"/>
		<path class="st0" d="M18.2,15.5l0.4,0.6c0,0,4.3-2.3,9-1.1l0.2-0.7C22.8,13,18.4,15.4,18.2,15.5z"/>
		<path class="st0" d="M18.2,17.5l0.4,0.6c0,0,4.3-2.3,9-1.1l0.2-0.7C22.8,15,18.4,17.4,18.2,17.5z"/>
	</g>
</g>
</svg>
