<?xml version="1.0" encoding="utf-8"?>
<!-- Generator: Adobe Illustrator 23.1.0, SVG Export Plug-In . SVG Version: 6.00 Build 0)  -->
<svg version="1.1" id="Layer_1" xmlns="http://www.w3.org/2000/svg" xmlns:xlink="http://www.w3.org/1999/xlink" x="0px" y="0px"
	 viewBox="0 0 504.3 504.3" style="enable-background:new 0 0 504.3 504.3;" xml:space="preserve">
<style type="text/css">
	.st0{fill:#EFC75E;}
	.st1{fill:#EF6B11;}
	.st2{fill:#F3510D;}
	.st3{fill:#DCB757;}
</style>
<path class="st0" d="M198.6,341.6v-33.1l-92.2,26c0,0,6.7-39.4,54.7-53.2c14.6-3.9,27.2-3.9,37.4-2V143.1h46.1
	c-5.1-15.4-9.8-27.6-13.8-35.8c-6.7-13.8-13.8-4.7-29.1,8.7c-11,9.1-39,29.1-81.1,40.2c-42.1,11.4-76,8.3-90.2,5.9
	c-20.1-3.5-30.7-7.9-29.5,7.5c0.8,13.4,3.9,34.3,11.4,62.2c15.8,59.9,68.1,175.3,167.4,148.5c26-7.1,44.5-20.9,57.1-38.6
	L198.6,341.6L198.6,341.6z M50.1,232.5l70.5-18.5c0,0-2,27.2-28.4,34.3C65.9,254.9,50.1,232.5,50.1,232.5z"/>
<path class="st1" d="M465.2,145.8c-18.9,3.2-63.8,7.5-119.3-7.5s-92.6-41-107.1-53.2c-20.9-17.3-29.9-29.1-38.6-11
	c-7.9,16.1-18.1,42.1-28,78.8c-21.3,79.2-37,246.2,94.1,281.2c131.5,35.1,201.3-117.4,222.5-196.5c9.8-36.6,14.2-64.2,15.4-81.9
	C505.8,135.2,492,141.1,465.2,145.8z M201.3,211.6c0,0,20.9-32.7,56.3-22.4c35.4,10.2,38.2,49.2,38.2,49.2L201.3,211.6z
	 M287.2,355.3c-61.8-18.1-71.3-67.3-71.3-67.3l165.8,46.1C381.7,334.5,348.3,373.1,287.2,355.3z M347.1,254.9c0,0,20.1-32.3,54-22.4
	c33.9,10.2,36.6,49.2,36.6,49.2L347.1,254.9z"/>
<path class="st2" d="M291.9,356.5l-4.7-1.2c-61.8-18.1-71.3-67.3-71.3-67.3l87.4,24.4l44.9-173.7c-0.8-0.4-1.6-0.4-2.4-0.4
	c-55.5-15-92.6-41-107.1-53.2c-20.9-17.3-29.9-29.1-38.6-11c-7.9,16.1-18.1,42.1-28,78.8c-20.5,76-35.8,232.8,79.6,276.5l19.7,5.9
	L291.9,356.5L291.9,356.5z M201.3,211.6c0,0,20.9-32.7,56.3-22.4c35.4,10.2,38.2,49.2,38.2,49.2L201.3,211.6z"/>
<path class="st3" d="M165.9,317.9l-59.5,16.9c0,0,6.3-37,50-51.6l-33.9-127.2c-0.8,0.4-1.6,0.4-2.8,0.8c-42.1,11.4-76,8.3-90.2,5.9
	c-20.1-3.5-30.7-7.9-29.5,7.5c0.8,13.4,3.9,34.3,11.4,62.2c16.5,59.1,68.9,174.5,168.2,147.7l2.4-0.8
	C182,379.4,165.9,317.9,165.9,317.9z M50.1,232.5l70.5-18.5c0,0-2,27.2-28.4,34.3C65.9,254.9,50.1,232.5,50.1,232.5z"/>
</svg>
