<?xml version="1.0" encoding="iso-8859-1"?>
<!-- Generator: Adobe Illustrator 16.0.0, SVG Export Plug-In . SVG Version: 6.00 Build 0)  -->
<!DOCTYPE svg PUBLIC "-//W3C//DTD SVG 1.1//EN" "http://www.w3.org/Graphics/SVG/1.1/DTD/svg11.dtd">
<svg version="1.1" id="Capa_1" xmlns="http://www.w3.org/2000/svg" xmlns:xlink="http://www.w3.org/1999/xlink" x="0px" y="0px"
	 width="160.706px" height="160.705px" viewBox="0 0 160.706 160.705" style="enable-background:new 0 0 160.706 160.705;"
	 xml:space="preserve">
<g>
	<g>
		<polygon points="75.829,159.938 75.834,159.938 75.816,159.938 		"/>
		<path d="M123.741,98.705c-8.451-6.333-18.456-11.46-29.483-14.255c13.518-9.097,22.834-27.03,22.834-43.182
			C117.091,18.48,98.617,0,75.829,0C53.04,0,34.556,18.474,34.556,41.269c0,16.152,9.31,34.084,22.834,43.182
			c-32.33,8.202-56.285,36.261-56.285,57.062c0,12.288,37.354,18.426,74.711,18.426l-20.925-20.922l17.622-42.601H72.33
			l-6.844-7.854c3.315,1.193,6.765,1.906,10.343,1.906c3.574,0,7.018-0.713,10.317-1.895l-6.838,7.837h-0.173l17.618,42.6
			l-20.925,20.917c16.151,0,32.3-1.139,45.428-3.441l-5.517-22.322L123.741,98.705z"/>
		<path d="M150.04,66.061c-6.594-1.482-13.158,2.655-14.638,9.259l-1.59,7.079l-0.974,4.311l-10.681,47.398l3.952,16.014
			l2.612,10.584l6.893-8.446l10.442-12.769l10.675-47.398l0.975-4.311l1.589-7.073C160.788,74.111,156.647,67.553,150.04,66.061z
			 M133.447,151.766l-5.151-1.156l-3.781-15.297l1.09-0.432l16.77,3.781l0.986,0.975L133.447,151.766z M155.751,87.343
			l-19.997-4.507l1.151-5.12l19.997,4.506L155.751,87.343z"/>
	</g>
</g>
<g>
</g>
<g>
</g>
<g>
</g>
<g>
</g>
<g>
</g>
<g>
</g>
<g>
</g>
<g>
</g>
<g>
</g>
<g>
</g>
<g>
</g>
<g>
</g>
<g>
</g>
<g>
</g>
<g>
</g>
</svg>
