<svg height="512" viewBox="0 0 60 61" width="512" xmlns="http://www.w3.org/2000/svg"><g id="049---Theatre" fill="none"><g id="Icons" transform="translate(1 1)"><path id="Shape" d="m34 2.95c-.445 6.854-.182 4.21-.85 12.7-2.23-.33-4.46-.59-6.69-.84-.5071315-.0568494-.9745236.2807116-1.08.78-.85 3.76-1.78 7.52-2.53 11.3-1.036 5.191-2.25 8.464-2.25 13.82-1.0578907.7541145-2.3039173 1.2006073-3.6 1.29-1.0955506-.0708275-2.1552467-.4183253-3.08-1.01-4.42-2.57-8.77-6.21-10.79-11.04-2.04-4.89-1.85-10.26-2.31-15.44-.34-3.84-.51-7.71-.76-11.56-.03683821-.50863561.31759725-.9624859.82-1.05 13.762-2.412 18.15-2.5 32.3 0 .5024027.0875141.8568382.54136439.82 1.05z" fill="#f44335"/><g fill="#37474f"><path id="Shape" d="m22.7 27.59c-3.766-4.043-10.507-3.855-13.83 3.85-.16798519.3867688-.07530591.8373503.23169141 1.1264207.30699732.2890705.76233413.3545041 1.13830859.1635793 4.879-2.482 7.607-2.471 11.51-.91z"/><path id="Shape" d="m13.591 12.939c.4289738.1025671.8779747-.0585789 1.1438266-.4105182.2658519-.3519394.2981085-.8278903.0821734-1.2124818-2.795-4.44-6.861-4.436-9.654.039-.21759618.3853655-.18596687.8630776.08053722 1.2163908.26650408.3533133.71714613.5149642 1.14746278.4116092 2.38238404-.3975186 4.8129355-.4123719 7.2-.044z"/><path id="Shape" d="m27.591 12.939c.4289738.1025671.8779747-.0585789 1.1438266-.4105182.2658519-.3519394.2981085-.8278903.0821734-1.2124818-2.8-4.44-6.861-4.436-9.654.039-.2175962.3853655-.1859669.8630776.0805372 1.2163908.2665041.3533133.7171462.5149642 1.1474628.4116092 2.382384-.3975186 4.8129355-.4123719 7.2-.044z"/></g><path id="Shape" d="m57.94 25.16c-1.33 3.62-2.58 7.29-3.99 10.87-3.75 9.547-4.836 17.988-20.04 21.72-2.1588764.7366862-4.5476372.0312804-5.96-1.76-3.52-3.71-6.67-8.43-7.24-13.63-.58-5.27 1.12-10.37 2.14-15.47.75-3.78 1.68-7.54 2.53-11.3.1054764-.4992884.5728685-.8368494 1.08-.78 9.758 1.084 11.479 1.652 15.63 2.69.1384235.0297735.2752628.0664865.41.11 5.1426661 1.7038569 10.1417457 3.8138363 14.95 6.31.455254.2282605.6662446.7621957.49 1.24z" fill="#0377bc"/><path id="Shape" d="m55.35 24.35c-1.33 3.62-2.58 7.3-3.99 10.87-3.811 9.709-4.871 18-20.04 21.72-.6480483.1599619-1.3125296.2438611-1.98.25-.5048331-.3492449-.9708222-.7515376-1.39-1.2-3.52-3.71-6.67-8.43-7.24-13.63-.58-5.27 1.12-10.37 2.14-15.47.75-3.78 1.68-7.54 2.53-11.3.1054764-.4992884.5728685-.8368494 1.08-.78 13.792 1.532 16.592 2.425 28.4 8.3.455254.2282605.6662446.7621957.49 1.24z" fill="#02a9f4"/><path id="Shape" d="m41.806 43.74c.41334-.0747371.8293285.1167995 1.0412814.4794447s.1746873.8190922-.0932814 1.1425553c-1.856 2.228-5.261 5.171-9.615 3.892s-5.626-5.6-5.981-8.475c-.0508453-.4172319.1646425-.8217257.5392807-1.012288.3746382-.1905622.8284531-.1265137 1.1357193.160288 1.6730476 1.6908319 3.6932416 2.9982772 5.921 3.832 2.3243778.5037467 4.7303704.4972643 7.052-.019z" fill="#283593"/><path id="Shape" d="m34.96 30.964c.3827483.2195653.8592019.1915724 1.2136056-.0713023.3544038-.2628747.5194479-.7107052.4203944-1.1406977-1.43-5.047-5.332-6.19-9.273-2.684-.3172796.3083752-.4215556.7755067-.2655356 1.1895349.1560201.4140282.5426481.6961701.9845356.7184651 2.3976975.2905091 4.7337098.9616063 6.92 1.988z" fill="#283593"/><path id="Shape" d="m48.392 34.912c.3827483.2195653.8592019.1915724 1.2136056-.0713023.3544038-.2628747.5194479-.7107052.4203944-1.1406977-1.43-5.048-5.332-6.191-9.273-2.685-.3172796.3083752-.4215556.7755067-.2655356 1.1895349.1560201.4140282.5426481.6961701.9845356.7184651 2.397832.2904393 4.733907.961892 6.92 1.989z" fill="#283593"/></g><g id="Outline" fill="#000"><path id="Shape" d="m58.89 24.023c-8.812-4.371-13.951-6.714-23.67-8.222.53-6.7.432-6.443.777-11.773.0794694-1.02252168-.6323445-1.93752527-1.643-2.112-14.12-2.491-18.396-2.516-32.654 0-1.00597637.17328977-1.71604468 1.0819695-1.641 2.1 1.5 23.075.759 10.965 1.006 15.1.244 4.074.495 8.285 2.139 12.225 1.837 4.379 5.608 8.259 11.218 11.516 2.472 1.421 4.2 1.422 6.283.479.553 5.462 3.73 10.347 7.521 14.349 1.6556259 2.0598101 4.4188853 2.8706322 6.925 2.032 6.3-1.547 11.008-4.2 14-7.891 2.687-3.316 4.116-7.287 5.5-11.127 1.4-3.9-1.109 3.137 5.215-14.184.3662349-.9580662-.0565238-2.0374868-.976-2.492zm-43.467 17.1c-5.146-2.992-8.732-6.645-10.37-10.561-1.963-4.702-1.784-10.062-2.237-15.14-.354-4.008-.523-8.022-.762-11.537 13.946-2.458 18.501-2.374 31.946.001-.25 3.862-.441 7.747-.759 11.545-.013.151.52.093-4.719-.5.8048321.1295079 1.6118971-.2184577 2.0702429-.8925839s.4851501-1.5525996.0687571-2.2534161c-3.192-5.067-8.163-5.06-11.349.043-.3920346.6594648-.393248 1.4802315-.003165 2.1408526s1.1093729 1.0559456 1.876165 1.0311474c2.2654023-.3596283 4.5698196-.4023712 6.847-.127l-.467-.054c-1.0128765-.1156578-1.9486878.5547548-2.165 1.551-.747 3.318-1.536 6.545-2.32 10.322-4.163-3.115-10.8-2.35-14.128 5.353-.33416596.7730841-.14821453 1.6726714.46507317 2.2499097.61328773.5772383 1.52247783.7084195 2.27392683.3280903 4.626-2.342 6.912-2.209 9.9-1.161-.5993668 2.5178464-.9288916 5.0923633-.983 7.68-1.5456638 1.1297267-3.6463378 1.1232444-5.185-.016zm5.808-28.123c-.089794.0174336-.1799723-.0282732-.219-.111 2.363-3.785 5.521-3.9 7.967-.024-.05.398-2.415-.735-7.748.135zm.8 18.5c-3.328-1.123-6.135-1.239-11.239 1.34 1.146-2.666 3.332-5.84 7.208-5.84 1.7256751.0008718 3.3803321.6871948 4.6 1.908-.244 1.119-.3 1.392-.573 2.592zm30.745 8.524c-1.326 3.684-2.7 7.493-5.17 10.545-2.676 3.3-7.146 5.788-12.922 7.207-1.8097995.6622475-3.8399035.0673289-5.006-1.467-4.093-4.322-6.5-8.836-6.971-13.056-.43-3.906.478-7.852 1.356-11.667.981-4.274.683-3.478 2.46-11.142.28-1.211.56-2.421.828-3.634 14.239 1.59 18.394 2.923 30.649 9.003-5.954 16.295-3.742 10.087-5.228 14.208z"/><path id="Shape" d="m42.624 43.756c-2.167539.4860251-4.4141625.5010299-6.588.044-2.0763219-.7901958-3.9582633-2.0179938-5.518-3.6-.6138502-.5743113-1.5213096-.7034761-2.2710255-.3232503-.7497158.3802259-1.1816531 1.1886789-1.0809745 2.0232503.818 6.631 4.817 9.659 9.066 9.659 2.919 0 5.8-1.565 8.29-4.559.5364614-.6471932.6109646-1.5607693.1864529-2.2863309s-1.2574211-1.1082287-2.0844529-.9576691zm-8.2 5.539c-3.711-1.092-4.914-4.756-5.273-7.64 1.7864076 1.7993978 3.9448764 3.1861559 6.324 4.063 2.4744236.5473714 5.0385764.5473714 7.513 0-1.862 2.236-4.854 4.662-8.567 3.582z"/><path id="Shape" d="m28.915 30.968c2.2898156.2804364 4.5207774.9217113 6.61 1.9.73757.3909879 1.6363465.310129 2.292287-.2062266.6559404-.5163557.9455804-1.371017.738713-2.1797734-1.628-5.754-6.4-7.161-10.9-3.159-.6078561.5695918-.8241207 1.4432746-.5521576 2.23065.2719632.7873754.9813426 1.3413365 1.8111576 1.41435zm7.722.071c-.2.349-2.131-1.38-7.473-2.056-.093-.011-.142-.052-.179-.169 3.354-2.98 6.408-2.162 7.652 2.225z"/><path id="Shape" d="m42.347 34.915c2.2900621.279225 4.5212118.9205539 6.61 1.9.3077315.145795.6434926.2229108.984.226.6536408.0172094 1.2768453-.2760199 1.6802701-.7905983.4034247-.5145784.5394432-1.1897571.3667299-1.8204017-1.631-5.752-6.395-7.164-10.9-3.159-.608097.5693303-.8245241 1.4430292-.5524953 2.2303787s.9816399 1.3411027 1.8114953 1.4136213zm7.658.115c-.0593195.0183843-.123562.0118879-.178-.018-2.2756636-1.092966-4.7185702-1.796396-7.227-2.081-.093-.012-.142-.053-.179-.169 3.57-3.177 6.62-1.848 7.584 2.268z"/><path id="Shape" d="m38.5 40.829c-1.0515444.0661653-2.0933726-.2353886-2.947-.853.804472-1.3810442 1.4279229-2.8598495 1.855-4.4.1124915-.3461717.028003-.726127-.2205868-.9920072-.2485898-.2658801-.6220152-.3756882-.9749585-.2866927-.3529432.0889956-.6296555.3627376-.7224547.7146999-.3628964 1.3159609-.8829752 2.5834221-1.549 3.775-.6422365.8739553-.4641241 2.1015954.4 2.757 1.2413943.9365247 2.7812992 1.3890406 4.332 1.273 1.0815911-.0821464 1.8969569-1.0173011 1.831-2.1.084396-1.3624762.3325146-2.7098371.739-4.013.1124915-.3461717.028003-.726127-.2205868-.9920072-.2485898-.2658801-.6220152-.3756882-.9749585-.2866927-.3529432.0889956-.6296555.3627376-.7224547.7146999-.4707631 1.5221666-.7479442 3.0975631-.825 4.689z"/><path id="Shape" d="m14.428 14.926c.8179012.1670902 1.6573843-.1639774 2.1410621-.8443724.4836777-.680395.5205095-1.5820497.0939379-2.2996276-3.192-5.067-8.163-5.06-11.349.043-.39342794.6593162-.39568569 1.4807829-.00588784 2.1422517s1.10950826 1.0574859 1.87688784 1.0327483c2.39702258-.3870311 4.8385702-.4119758 7.243-.074zm-7.197-1.926c-.08979399.0174336-.17997226-.0282732-.219-.111 2.363-3.785 5.521-3.9 7.967-.024-.05.398-2.415-.735-7.748.135z"/><path id="Shape" d="m16 16c-.5522847 0-1 .4477153-1 1 .0236186 1.3650708-.1180785 2.7279824-.422 4.059-.3668048 1.0204623.1513821 2.1466848 1.165 2.532 1.4555574.5474644 3.0604426.5474644 4.516 0 1.0126934-.3856861 1.5299461-1.5113666 1.163-2.531-.3040018-1.3313431-.4456995-2.6945953-.422-4.06 0-.5522847-.4477153-1-1-1s-1 .4477153-1 1c-.023067 1.5919108.1543272 3.1803952.528 4.728-.9919409.3524757-2.074333.3567079-3.069.012.3825312-1.5503206.5643521-3.1433539.541-4.74 0-.5522847-.4477153-1-1-1z"/></g></g></svg>