<svg height="512" viewBox="0 0 60 60" width="512" xmlns="http://www.w3.org/2000/svg"><g id="049---Theatre" fill="none"><g id="Icons" transform="translate(1 1)"><path id="Shape" d="m34 3c-.45 6.85-.18 4.21-.85 12.7-2.23-.33-4.46-.59-6.69-.84-.5059938-.0525548-.9708045.2831418-1.08.78-.85 3.76-1.78 7.52-2.53 11.3-1 5.19-2.25 8.46-2.25 13.82-1.0654085.7320281-2.3097817 1.1606455-3.6 1.24-1.0948348-.0668644-2.1546976-.4109757-3.08-1-4.42-2.58-8.77-6.22-10.79-11s-1.85-10.31-2.31-15.49c-.34-3.84-.51-7.71-.76-11.51-.06096022-.52592499.29856944-1.00822087.82-1.1 13.76-2.41 18.12-2.5 32.3 0 .5214306.09177913.8809602.57407501.82 1.1z" fill="#cad9fc"/><g fill="#7facfa"><path id="Shape" d="m22.7 27.59c-3.77-4-10.51-3.86-13.83 3.85-.16798519.3867688-.07530591.8373503.23169141 1.1264207.30699732.2890705.76233413.3545041 1.13830859.1635793 4.88-2.48 7.61-2.47 11.51-.91z"/><path id="Shape" d="m13.59 12.94c.428728.103635.878138-.0564052 1.1448606-.4076984.2667226-.3512933.3001437-.8271769.0851394-1.2123016-2.82-4.44-6.82-4.44-9.66.03-.22409625.387494-.19594663.8712074.07158496 1.2300912.26753159.3588839.72305943.5240061 1.15841504.4199088 2.3820533-.3968758 4.8116634-.4171225 7.2-.06z"/><path id="Shape" d="m27.59 12.94c.428728.103635.878138-.0564052 1.1448606-.4076984.2667226-.3512933.3001437-.8271769.0851394-1.2123016-2.8-4.44-6.86-4.44-9.66 0-.244332.3887205-.226673.8871919.0445538 1.2576481.2712269.3704561.7410809.5378562 1.1854462.4223519 2.3820533-.3968758 4.8116634-.4171225 7.2-.06z"/></g><path id="Shape" d="m57.94 25.16c-1.33 3.62-2.58 7.29-4 10.87-3.75 9.55-4.84 18-20 21.72-2.150837.7319703-4.5295653.0311665-5.94-1.75-3.52-3.71-6.67-8.43-7.24-13.63s1.07-10.37 2.09-15.48c.75-3.78 1.68-7.54 2.53-11.3.1091955-.4968582.5740062-.8325548 1.08-.78 9.76 1.08 11.48 1.65 15.63 2.69l.41.11c5.15859 1.7044436 10.1742398 3.8143603 15 6.31.4362268.2450525.6242003.774796.44 1.24z" fill="#cad9fc"/><path id="Shape" d="m55.35 24.35c-1.33 3.62-2.58 7.3-4 10.87-3.81 9.71-4.87 18-20 21.72-.6545462.1615292-1.3258327.24544-2 .25-.4903785-.3483627-.9428552-.7472125-1.35-1.19-3.52-3.71-6.67-8.43-7.24-13.63s1.07-10.37 2.09-15.48c.75-3.78 1.68-7.54 2.53-11.3.1091955-.4968582.5740062-.8325548 1.08-.78 13.79 1.53 16.59 2.42 28.4 8.3.455254.2282605.6662446.7621957.49 1.24z" fill="#e8edfc"/><path id="Shape" d="m41.81 43.74c.4111731-.0694957.8223074.123454 1.0315928.4841375.2092855.3606834.1727818.8133737-.0915928 1.1358625-1.85 2.23-5.26 5.17-9.61 3.89s-5.63-5.59-6-8.47c-.0473943-.4147801.1678709-.8153565.5399291-1.0047274.3720583-.189371.8226081-.1276825 1.1300709.1547274 1.6753141 1.6870819 3.6944648 2.9933905 5.92 3.83 2.3335108.506981 4.7493907.5001565 7.08-.02z" fill="#7facfa"/><path id="Shape" d="m35 31c.3813663.226818.8616669.2022957 1.2179493-.0621839.3562825-.2644796.5187754-.7171231.4120507-1.1478161-1.43-5.05-5.33-6.19-9.27-2.68-.3016711.2985456-.4066941.7429799-.270567 1.1449804.1361271.4020004.4895718.6911864.910567.7450196 2.4257027.2858989 4.7894002.9612411 7 2z" fill="#7facfa"/><path id="Shape" d="m48.39 34.91c.3809485.2042241.8458034.1687358 1.1913357-.09095s.5088936-.696335.4186643-1.11905c-1.43-5.05-5.34-6.19-9.28-2.68-.3138205.3085345-.4157264.7733333-.2597782 1.1848633.1559482.4115301.5402961.6920643.9797782.7151367 2.4070827.2928261 4.7527177.9644539 6.95 1.99z" fill="#7facfa"/></g><g id="Layer_3" fill="#fff" transform="translate(1 1)"><path id="Shape" d="m28 56c1.3235435 1.7071218 3.5576219 2.4293283 5.63 1.82-1.0112965-.3843931-1.9139109-1.0090159-2.63-1.82-3.52-3.71-6.67-8.43-7.24-13.63-.05-.42-.06-.83-.07-1.25l-1.42.34c-.4909191.2246117-1.0084005.3859046-1.54.48.41 5.36 3.49 10.12 7.27 14.06z"/><path id="Shape" d="m.06 3c.25 3.85.42 7.72.76 11.56.91 10.18-.43 18.56 13.1 26.44.7220124.4447336 1.5179521.7563355 2.35.92.207757.1646959.4915047.1957916.73.08.5147491-.0150162 1.0240891-.1094634 1.51-.28-.5536707-.1838636-1.0865744-.4251785-1.59-.72-4.42-2.58-8.77-6.22-10.79-11s-1.85-10.31-2.31-15.49c-.34-3.84-.51-7.71-.76-11.51-.06096022-.52592499.29856944-1.00822087.82-1.1 4.78763551-.94659178 9.6365369-1.55145129 14.51-1.81-6-.16-11.45.75-17.51 1.81-.52143056.09177913-.88096022.57407501-.82 1.1z"/></g><path id="Shape" d="m3.39 23.38-2 .21c-.28-2.7-.34-5.38-.58-8l2-.18c.24 2.71.31 5.37.58 7.97z" fill="#fff"/><g fill="#428dff"><path id="Shape" d="m58.89 24c-8.81-4.37-14-6.71-23.67-8.22.53-6.7.43-6.44.78-11.77.0717262-1.022165-.6406904-1.93319472-1.65-2.11-14.12-2.48-18.35-2.5-32.65.02-.99324266.18011271-1.6965762 1.0721455-1.64 2.08.25 3.86.42 7.72.76 11.6.04970563.5522847.53771525.9597056 1.09.91s.95970563-.5377153.91-1.09c-.36-4-.53-8-.77-11.54 14-2.45 18.51-2.37 32 0-.25 3.86-.44 7.74-.76 11.54 0 .15.52.09-4.72-.5.8062308.1312274 1.6154041-.2169598 2.0744284-.8926264.4590243-.6756667.4846019-1.5562014.0655716-2.2573736-3.19-5.07-8.16-5.06-11.35.05-.3979051.6507105-.4097368 1.4665091-.0308699 2.1284853s1.088262 1.0649972 1.8508699 1.0515147c2.2567166-.3547254 4.5514044-.3984658 6.82-.13h-.46c-1.0125036-.1113106-1.9469143.5561255-2.17 1.55-.75 3.32-1.54 6.55-2.32 10.32-4.13-3.16-10.77-2.4-14.05 5.26-.33597039.7735375-.15061182 1.6747006.46338282 2.2528415.61399468.5781409 1.52466828.7090082 2.27661718.3271585 4.63-2.34 6.91-2.21 9.9-1.16-.6043861 2.5173595-.9396008 5.0918088-1 7.68-1.541648 1.1304258-3.638352 1.1304258-5.18 0-5.14-3-8.73-6.65-10.37-10.57-.9236952-2.2923363-1.48377503-4.7148503-1.66-7.18-.03751289-.3572656-.26277515-.6673797-.59093267-.8135254s-.70935536-.1061199-1 .105c-.29064463.2111199-.44658022.5612598-.40906733.9185254.1918578 2.6624681.8027054 5.2779758 1.81 7.75 1.73 4.42 5.6 8.26 11.21 11.52 2.47 1.42 4.2 1.42 6.29.48.55 5.46 3.72 10.34 7.52 14.34 1.6604871 2.0496505 4.4220983 2.8478041 6.92 2 6.3-1.55 11-4.2 14-7.89 2.68-3.32 4.11-7.29 5.49-11.13s-1.1 3.14 5.22-14.19c.3259716-.9490303-.1017601-1.9926957-1-2.44zm-37.66-11c-.0924093.0165967-.1839234-.0333201-.22-.12 2.36-3.78 5.52-3.9 8 0-.08.38-2.45-.75-7.78.12zm.77 18.5c-3.33-1.13-6.14-1.24-11.24 1.34 1.18-2.67 3.36-5.84 7.24-5.84 1.7256773.002827 3.3798516.689669 4.6 1.91-.24 1.09-.3 1.39-.6 2.59zm30.77 8.5c-1.32 3.69-2.69 7.49-5.17 10.55-2.67 3.29-7.14 5.78-12.92 7.2-1.8066438.658093-3.8313666.066874-5-1.46-4.09-4.33-6.5-8.84-7-13.06-.43-3.91.48-7.85 1.36-11.67 1-4.27.68-3.48 2.46-11.14.28-1.21.56-2.42.83-3.63 14.24 1.59 18.39 2.92 30.65 9-5.93 16.32-3.72 10.11-5.21 14.21z"/><path id="Shape" d="m42.62 43.76c-2.1686465.4653882-4.4113535.4653882-6.58 0-2.0755069-.7929465-3.9575502-2.020366-5.52-3.6-.6140377-.5727144-1.5204279-.700903-2.2692023-.320928-.7487743.3799751-1.1804787 1.1871968-1.0807977 2.020928.81 6.63 4.81 9.66 9.06 9.66 2.92 0 5.8-1.56 8.29-4.56.5035134-.649221.5587668-1.5403292.1393122-2.2467791s-1.2282782-1.0845124-2.0393122-.9532209zm-8.2 5.53c-3.71-1.09-4.91-4.75-5.27-7.63 1.7883561 1.7943463 3.9445761 3.179513 6.32 4.06 2.4769804.5455771 5.0430196.5455771 7.52 0-1.86 2.28-4.86 4.66-8.57 3.57z"/><path id="Shape" d="m28.92 31c2.2867076.2799615 4.5144498.9212812 6.6 1.9.7363396.3628105 1.6159501.2679323 2.2579844-.2435551.6420344-.5114874.9310907-1.347647.7420156-2.1464449-1.63-5.76-6.4-7.16-10.9-3.16-.6164278.5737601-.8326568 1.4591199-.5501062 2.2524351s1.0097679 1.342653 1.8501062 1.3975649zm7.72.07c-.2.35-2.13-1.38-7.48-2.06-.09 0-.14-.05-.17-.17 3.35-3.01 6.4-2.19 7.65 2.16z"/><path id="Shape" d="m42.35 34.92c2.3032548.2714275 4.5482751.9094859 6.65 1.89.3116444.1513215.6535603.2299622 1 .23.6446087.0005219 1.2526681-.2992822 1.644745-.8109425.3920769-.5116604.523414-1.1767689.355255-1.7990575-1.63-5.76-6.4-7.17-10.9-3.16-.6123577.5671692-.8328265 1.4420032-.5624015 2.2316443.2704251.7896412.9809104 1.3456553 1.8124015 1.4183557zm7.65.08c-.0541336.0239618-.1158664.0239618-.17 0-2.2778645-1.0897743-4.7212666-1.7927171-7.23-2.08-.1 0-.15 0-.18-.17 3.58-3.17 6.58-1.84 7.58 2.25z"/><path id="Shape" d="m38.5 40.83c-1.068901.0788527-2.1313264-.2221678-3-.85.8048655-1.3814634 1.4299263-2.8601019 1.86-4.4.0450011-.4714599-.2468923-.9098333-.6992369-1.0501327s-.9410746.0559555-1.1707631.4701327c-.3635919 1.3142848-.8839985 2.5800481-1.55 3.77-.6358666.8765727-.4585568 2.1000104.4 2.76 1.2447666.9356728 2.7871857 1.3870259 4.34 1.27 1.0773183-.0903453 1.8878366-1.0204483 1.83-2.1.0799154-1.3588518.3284891-2.7024934.74-4 .1546397-.5301934-.1498066-1.0853603-.68-1.24-.5272244-.1554033-1.0810415.1438366-1.24.67-.4740565 1.5253248-.7529439 3.1045666-.83 4.7z"/><path id="Shape" d="m3.11 19.5c0-.5522847-.44771525-1-1-1s-1 .4477153-1 1 .44771525 1 1 1 1-.4477153 1-1z"/><path id="Shape" d="m5.31 11.83c-.44358586.7196026-.41487449 1.6344919.0729597 2.3248644s1.34061596 1.0229534 2.1670403.8451356c2.27859037-.3677528 4.6014096-.3677528 6.88 0 .8186733.1656656 1.6580095-.1671945 2.1406282-.8489204.4826186-.6817259.5176612-1.5839748.0893718-2.3010796-3.19-5.14-8.16-5.13-11.35-.02zm1.92 1.17c-.09573013.02189-.19319045-.0289589-.23-.12 2.36-3.78 5.52-3.9 8 0-.07.38-2.44-.75-7.77.12z"/><path id="Shape" d="m16 16c-.5522847 0-1 .4477153-1 1 .0217376 1.3652107-.119256 2.7281494-.42 4.06-.3597786 1.0182021.1537097 2.1381378 1.16 2.53 1.4573456.5451988 3.0626544.5451988 4.52 0 1.0062903-.3918622 1.5197786-1.5117979 1.16-2.53-.300744-1.3318506-.4417376-2.6947893-.42-4.06 0-.5522847-.4477153-1-1-1s-1 .4477153-1 1c-.0210312 1.5925874.1570147 3.1815624.53 4.73-.9934163.3499436-2.0765837.3499436-3.07 0 .378859-1.5475657.5603011-3.1368642.54-4.73 0-.5522847-.4477153-1-1-1z"/></g></g></svg>