<svg height="512" viewBox="0 0 60 61" width="512" xmlns="http://www.w3.org/2000/svg"><g id="049---Theatre"><path id="Shape" d="m58.89 24.023c-8.812-4.371-13.951-6.714-23.67-8.222.53-6.7.432-6.443.777-11.773.0794694-1.02252168-.6323445-1.93752527-1.643-2.112-14.12-2.491-18.396-2.516-32.654 0-1.00597637.17328977-1.71604468 1.0819695-1.641 2.1 1.5 23.075.759 10.965 1.006 15.1.244 4.074.495 8.285 2.139 12.225 1.837 4.379 5.608 8.259 11.218 11.516 2.472 1.421 4.2 1.422 6.283.479.553 5.462 3.73 10.347 7.521 14.349 1.6556259 2.0598101 4.4188853 2.8706322 6.925 2.032 6.3-1.547 11.008-4.2 14-7.891 2.687-3.316 4.116-7.287 5.5-11.127 1.4-3.9-1.109 3.137 5.215-14.184.3662349-.9580662-.0565238-2.0374868-.976-2.492zm-43.467 17.1c-5.146-2.992-8.732-6.645-10.37-10.561-1.963-4.702-1.784-10.062-2.237-15.14-.354-4.008-.523-8.022-.762-11.537 13.946-2.458 18.501-2.374 31.946.001-.25 3.862-.422 7.748-.759 11.545-.012.151.52.093-4.719-.5.8048321.1295079 1.6118971-.2184577 2.0702429-.8925839s.4851501-1.5525996.0687571-2.2534161c-3.192-5.067-8.163-5.06-11.349.043-.3920346.6594648-.393248 1.4802315-.003165 2.1408526s1.1093729 1.0559456 1.876165 1.0311474c2.2654023-.3596283 4.5698196-.4023712 6.847-.127l-.467-.054c-1.0128765-.1156578-1.9486878.5547548-2.165 1.551-.747 3.318-1.536 6.545-2.32 10.322-4.163-3.115-10.8-2.35-14.128 5.353-.33416596.7730841-.14821453 1.6726714.46507317 2.2499097.61328773.5772383 1.52247783.7084195 2.27392683.3280903 4.626-2.342 6.912-2.209 9.9-1.161-.5993668 2.5178464-.9288916 5.0923633-.983 7.68-1.5456638 1.1297267-3.6463378 1.1232444-5.185-.016zm5.808-28.123c-.089794.0174336-.1799723-.0282732-.219-.111 2.363-3.785 5.521-3.9 7.967-.024-.05.398-2.415-.735-7.748.135zm.8 18.5c-3.328-1.123-6.135-1.239-11.239 1.34 1.146-2.666 3.332-5.84 7.208-5.84 1.7256751.0008718 3.3803321.6871948 4.6 1.908-.244 1.119-.3 1.392-.573 2.592zm30.745 8.524c-1.326 3.684-2.7 7.493-5.17 10.545-2.676 3.3-7.146 5.788-12.922 7.207-1.8097995.6622475-3.8399035.0673289-5.006-1.467-4.093-4.322-6.5-8.836-6.971-13.056-.43-3.906.478-7.852 1.356-11.667.981-4.274.683-3.478 2.46-11.142.28-1.211.56-2.421.828-3.634 14.239 1.59 18.394 2.923 30.649 9.003-5.954 16.295-3.742 10.087-5.228 14.208z"/><path id="Shape" d="m42.624 43.756c-2.167539.4860251-4.4141625.5010299-6.588.044-2.0763219-.7901958-3.9582633-2.0179938-5.518-3.6-.6138502-.5743113-1.5213096-.7034761-2.2710255-.3232503-.7497158.3802259-1.1816531 1.1886789-1.0809745 2.0232503.818 6.631 4.817 9.659 9.066 9.659 2.919 0 5.8-1.565 8.29-4.559.5364614-.6471932.6109646-1.5607693.1864529-2.2863309s-1.2574211-1.1082287-2.0844529-.9576691zm-8.2 5.539c-3.711-1.092-4.914-4.756-5.273-7.64 1.7864076 1.7993978 3.9448764 3.1861559 6.324 4.063 2.4744236.5473714 5.0385764.5473714 7.513 0-1.862 2.236-4.854 4.662-8.567 3.582z"/><path id="Shape" d="m28.915 30.968c2.2897104.2793785 4.5205069.920703 6.609 1.9.73757.3909879 1.6363465.310129 2.292287-.2062266.6559404-.5163557.9455804-1.371017.738713-2.1797734-1.628-5.754-6.4-7.161-10.9-3.159-.6079303.5697248-.8241064 1.4436132-.5519029 2.231059.2722035.7874459.9819117 1.3412755 1.8119029 1.413941zm7.722.071c-.2.349-2.131-1.38-7.473-2.056-.093-.011-.142-.052-.179-.169 3.354-2.98 6.408-2.162 7.652 2.225z"/><path id="Shape" d="m42.347 34.915c2.2900621.279225 4.5212118.9205539 6.61 1.9.3077315.145795.6434926.2229108.984.226.6536408.0172094 1.2768453-.2760199 1.6802701-.7905983.4034247-.5145784.5394432-1.1897571.3667299-1.8204017-1.631-5.752-6.395-7.164-10.9-3.159-.608097.5693303-.8245241 1.4430292-.5524953 2.2303787s.9816399 1.3411027 1.8114953 1.4136213zm7.658.115c-.0593195.0183843-.123562.0118879-.178-.018-2.2756636-1.092966-4.7185702-1.796396-7.227-2.081-.093-.012-.142-.053-.179-.169 3.57-3.177 6.62-1.848 7.584 2.268z"/><path id="Shape" d="m38.5 40.829c-1.0515444.0661653-2.0933726-.2353886-2.947-.853.804472-1.3810442 1.4279229-2.8598495 1.855-4.4.1124915-.3461717.028003-.726127-.2205868-.9920072-.2485898-.2658801-.6220152-.3756882-.9749585-.2866927-.3529432.0889956-.6296555.3627376-.7224547.7146999-.3628964 1.3159609-.8829752 2.5834221-1.549 3.775-.6422365.8739553-.4641241 2.1015954.4 2.757 1.2413943.9365247 2.7812992 1.3890406 4.332 1.273 1.0815911-.0821464 1.8969569-1.0173011 1.831-2.1.084396-1.3624762.3325146-2.7098371.739-4.013.1124915-.3461717.028003-.726127-.2205868-.9920072-.2485898-.2658801-.6220152-.3756882-.9749585-.2866927-.3529432.0889956-.6296555.3627376-.7224547.7146999-.4707631 1.5221666-.7479442 3.0975631-.825 4.689z"/><path id="Shape" d="m14.428 14.926c.8179012.1670902 1.6573843-.1639774 2.1410621-.8443724.4836777-.680395.5205095-1.5820497.0939379-2.2996276-3.192-5.067-8.163-5.06-11.349.043-.39342794.6593162-.39568569 1.4807829-.00588784 2.1422517s1.10950826 1.0574859 1.87688784 1.0327483c2.39702258-.3870311 4.8385702-.4119758 7.243-.074zm-7.197-1.926c-.08979399.0174336-.17997226-.0282732-.219-.111 2.363-3.785 5.521-3.9 7.967-.024-.05.398-2.415-.735-7.748.135z"/><path id="Shape" d="m16 16c-.5522847 0-1 .4477153-1 1 .0236186 1.3650708-.1180785 2.7279824-.422 4.059-.3668048 1.0204623.1513821 2.1466848 1.165 2.532 1.4555574.5474644 3.0604426.5474644 4.516 0 1.0126934-.3856861 1.5299461-1.5113666 1.163-2.531-.3040018-1.3313431-.4456995-2.6945953-.422-4.06 0-.5522847-.4477153-1-1-1s-1 .4477153-1 1c-.023067 1.5919108.1543272 3.1803952.528 4.728-.9919409.3524757-2.074333.3567079-3.069.012.3825312-1.5503206.5643521-3.1433539.541-4.74 0-.5522847-.4477153-1-1-1z"/></g></svg>