<?xml version="1.0" encoding="utf-8"?>
<!-- Generator: Adobe Illustrator 23.0.3, SVG Export Plug-In . SVG Version: 6.00 Build 0)  -->
<svg version="1.1" id="Capa_1" xmlns="http://www.w3.org/2000/svg" xmlns:xlink="http://www.w3.org/1999/xlink" x="0px" y="0px"
	 viewBox="0 0 219.2 219.2" style="enable-background:new 0 0 219.2 219.2;" xml:space="preserve">
<style type="text/css">
	.st0{fill:#00B988;}
</style>
<g>
	<path class="st0" d="M109.6,219.2c60.4,0,109.6-49.2,109.6-109.6C219.1,49.2,170,0,109.6,0S0,49.2,0,109.6
		C0,170,49.2,219.2,109.6,219.2z M109.6,15c52.1,0,94.6,42.4,94.6,94.6c0,52.1-42.4,94.6-94.6,94.6c-52.1,0-94.6-42.4-94.6-94.6
		C15,57.4,57.4,15,109.6,15z"/>
	<path class="st0" d="M94.9,156.5c2.9,2.9,7.7,2.9,10.6,0c2.9-2.9,2.9-7.7,0-10.6l-28.8-28.8l83.5,0c4.1,0,7.5-3.4,7.5-7.5
		c0-4.1-3.4-7.5-7.5-7.5l-83.5,0l28.8-28.8c2.9-2.9,2.9-7.7,0-10.6c-1.5-1.5-3.4-2.2-5.3-2.2c-1.9,0-3.8,0.7-5.3,2.2l-41.6,41.6
		c-1.4,1.4-2.2,3.3-2.2,5.3c0,2,0.8,3.9,2.2,5.3L94.9,156.5z"/>
</g>
</svg>
